<?xml version="1.0" standalone="no"?>
<!DOCTYPE svg PUBLIC "-//W3C//DTD SVG 20010904//EN"
 "http://www.w3.org/TR/2001/REC-SVG-20010904/DTD/svg10.dtd">
<svg version="1.0" xmlns="http://www.w3.org/2000/svg"
 width="1226.000000pt" height="1280.000000pt" viewBox="0 0 1226.000000 1280.000000"
 preserveAspectRatio="xMidYMid meet">
<g transform="translate(0.000000,1280.000000) scale(0.100000,-0.100000)"
fill="#000000" stroke="none">
<path d="M5640 12789 c-19 -5 -106 -17 -193 -27 -168 -20 -199 -32 -224 -83
-6 -13 -73 -359 -148 -769 -75 -410 -140 -748 -144 -752 -4 -5 -43 -17 -86
-29 -214 -55 -510 -163 -728 -266 -129 -60 -335 -168 -352 -184 -5 -5 -15 -9
-22 -9 -8 0 -286 196 -618 435 -332 239 -620 442 -639 451 -53 26 -94 12 -188
-63 -278 -222 -585 -522 -821 -803 -90 -107 -111 -147 -101 -194 3 -17 194
-305 424 -641 229 -335 423 -619 429 -630 11 -17 5 -32 -44 -115 -183 -307
-376 -766 -465 -1102 -15 -57 -29 -89 -39 -93 -9 -2 -344 -57 -746 -120 -401
-63 -737 -118 -746 -120 -37 -12 -70 -61 -79 -121 -35 -223 -49 -1006 -22
-1237 12 -109 27 -140 75 -162 18 -8 363 -74 767 -146 404 -72 738 -133 742
-135 4 -3 12 -24 18 -47 115 -458 261 -826 476 -1199 42 -73 77 -138 77 -143
0 -6 -139 -202 -310 -435 -620 -851 -583 -797 -583 -845 0 -50 17 -76 159
-239 186 -215 451 -474 686 -671 107 -90 133 -105 181 -105 39 0 91 34 675
435 348 239 638 435 644 435 7 0 50 -23 96 -50 111 -67 395 -207 538 -265 168
-69 444 -157 623 -200 113 -27 159 -43 162 -54 3 -9 55 -329 116 -711 124
-776 122 -761 145 -796 35 -55 56 -57 485 -62 399 -4 671 6 853 33 98 14 128
33 146 89 6 17 71 357 146 756 74 399 138 735 140 747 4 18 20 26 78 43 374
108 808 301 1131 503 76 48 142 87 147 87 4 0 275 -194 601 -432 326 -237 610
-438 632 -445 57 -20 88 -5 207 99 227 200 502 491 714 758 105 131 130 178
121 223 -3 16 -191 298 -418 626 -227 328 -427 617 -445 644 l-32 47 89 182
c96 194 186 414 245 598 40 126 125 450 125 478 0 46 10 49 440 117 228 36
559 88 735 116 176 28 332 57 347 65 45 23 59 65 69 203 21 312 7 684 -41
1071 -23 183 -38 231 -80 262 -18 12 -241 56 -775 153 -412 75 -756 139 -763
143 -7 4 -37 79 -66 167 -97 289 -231 578 -395 854 -64 109 -78 139 -70 153 6
11 206 287 445 615 239 327 437 606 440 619 17 66 -19 118 -285 408 -203 222
-583 569 -729 666 -54 36 -102 39 -152 9 -19 -12 -312 -212 -651 -445 -340
-233 -624 -424 -631 -424 -7 0 -22 6 -33 14 -37 26 -319 164 -440 216 -167 71
-341 133 -507 180 -78 22 -146 44 -150 48 -5 5 -60 339 -124 743 -70 442 -122
748 -132 769 -32 66 -23 65 -582 110 -147 12 -520 11 -570 -1z m590 -4260
c611 -82 1142 -524 1339 -1115 108 -322 112 -692 10 -1010 -131 -413 -445
-781 -828 -973 -339 -170 -729 -220 -1098 -140 -623 135 -1117 631 -1253 1257
-115 532 43 1091 422 1487 138 144 279 249 453 335 201 100 368 149 570 170
91 9 274 3 385 -11z"/>
</g>
</svg>
