<svg width="41" height="41" viewBox="0 0 41 41" fill="none" xmlns="http://www.w3.org/2000/svg">
<path fill-rule="evenodd" clip-rule="evenodd" d="M3 20.5C3 20.1685 3.1317 19.8505 3.36612 19.6161C3.60054 19.3817 3.91848 19.25 4.25 19.25H33.7325L25.865 11.385C25.6303 11.1503 25.4984 10.8319 25.4984 10.5C25.4984 10.1681 25.6303 9.84971 25.865 9.61499C26.0997 9.38028 26.4181 9.24841 26.75 9.24841C27.0819 9.24841 27.4003 9.38028 27.635 9.61499L37.635 19.615C37.7514 19.7311 37.8438 19.869 37.9068 20.0209C37.9698 20.1728 38.0022 20.3356 38.0022 20.5C38.0022 20.6644 37.9698 20.8272 37.9068 20.9791C37.8438 21.1309 37.7514 21.2689 37.635 21.385L27.635 31.385C27.4003 31.6197 27.0819 31.7516 26.75 31.7516C26.4181 31.7516 26.0997 31.6197 25.865 31.385C25.6303 31.1503 25.4984 30.8319 25.4984 30.5C25.4984 30.1681 25.6303 29.8497 25.865 29.615L33.7325 21.75H4.25C3.91848 21.75 3.60054 21.6183 3.36612 21.3839C3.1317 21.1495 3 20.8315 3 20.5Z" fill="white"/>
</svg>
